<svg width="20" height="20" viewBox="0 0 20 20" fill="none" xmlns="http://www.w3.org/2000/svg">
<path d="M11.141 4.38192L0.454 14.8907C0.0629999 15.2751 0.0629999 15.8966 0.454 16.2811L3.282 19.0619C3.477 19.2537 3.733 19.35 3.989 19.35C4.245 19.35 4.501 19.2537 4.696 19.0619L15.383 8.55317L11.141 4.38192Z" fill="#6B7280"/>
<path d="M19.546 4.4596C19.937 4.07513 19.937 3.45367 19.546 3.06919L16.718 0.288359C16.327 -0.0961196 15.695 -0.0961196 15.304 0.288359L12.555 2.99151L16.797 7.16275L19.546 4.4596Z" fill="#6B7280"/>
<path d="M16 16.0667H15V15.0834C15 14.5396 14.553 14.1001 14 14.1001C13.447 14.1001 13 14.5396 13 15.0834V16.0667H12C11.447 16.0667 11 16.5063 11 17.05C11 17.5938 11.447 18.0334 12 18.0334H13V19.0167C13 19.5605 13.447 20 14 20C14.553 20 15 19.5605 15 19.0167V18.0334H16C16.553 18.0334 17 17.5938 17 17.05C17 16.5063 16.553 16.0667 16 16.0667Z" fill="#6B7280"/>
<path d="M1 8.20016H2V9.18348C2 9.72725 2.447 10.1668 3 10.1668C3.553 10.1668 4 9.72725 4 9.18348V8.20016H5C5.553 8.20016 6 7.76061 6 7.21683C6 6.67306 5.553 6.23351 5 6.23351H4V5.25019C4 4.70642 3.553 4.26687 3 4.26687C2.447 4.26687 2 4.70642 2 5.25019V6.23351H1C0.447 6.23351 0 6.67306 0 7.21683C0 7.76061 0.447 8.20016 1 8.20016Z" fill="#6B7280"/>
<path d="M17 11.1501H15V13.1168H17V11.1501Z" fill="#6B7280"/>
<path d="M11 0.333591H9V2.30023H11V0.333591Z" fill="#6B7280"/>
<path d="M8 2.30023H6V4.26687H8V2.30023Z" fill="#6B7280"/>
<path d="M5 0.333591H3V2.30023H5V0.333591Z" fill="#6B7280"/>
<path d="M20 8.20015H18V10.1668H20V8.20015Z" fill="#6B7280"/>
<path d="M20 13.1168H18V15.0834H20V13.1168Z" fill="#6B7280"/>
</svg>
