<svg width="20" height="20" viewBox="0 0 20 20" fill="none" xmlns="http://www.w3.org/2000/svg">
<path d="M7.824 5.937C8.089 5.937 8.353 5.833 8.55 5.625C9.291 4.845 10.613 4.815 11.385 5.56C11.783 5.943 12.416 5.932 12.799 5.534C13.183 5.137 13.171 4.503 12.774 4.12C12.024 3.397 11.039 3 10 3C8.908 3 7.851 3.455 7.099 4.249C6.719 4.649 6.736 5.283 7.136 5.663C7.329 5.846 7.577 5.937 7.824 5.937Z" fill="#6B7280"/>
<path d="M17 7C17 3.14 13.859 0 10 0C6.141 0 3 3.14 3 7C1.346 7 0 8.346 0 10V12C0 13.654 1.346 15 3 15H4C4.553 15 5 14.552 5 14V7C5 4.243 7.243 2 10 2C12.757 2 15 4.243 15 7V14.083C15 15.692 13.691 17 12.083 17H12C12 15.897 11.103 15 10 15H9C7.897 15 7 15.897 7 17V18C7 19.103 7.897 20 9 20H10C10.737 20 11.375 19.595 11.722 19H12.083C14.48 19 16.476 17.273 16.907 15H17C18.654 15 20 13.654 20 12V10C20 8.346 18.654 7 17 7Z" fill="#6B7280"/>
</svg>
