<svg width="20" height="20" viewBox="0 0 20 20" fill="none" xmlns="http://www.w3.org/2000/svg">
<path d="M19.7189 9.29289L17.7165 7.29286L10.7079 0.292789C10.5201 0.105316 10.2655 0 10 0C9.73451 0 9.47989 0.105316 9.29213 0.292789L2.28352 7.29286L0.281057 9.29289C0.098675 9.48149 -0.00224337 9.73409 3.78491e-05 9.99629C0.00231907 10.2585 0.107617 10.5093 0.293254 10.6947C0.47889 10.8801 0.730011 10.9853 0.99253 10.9876C1.25505 10.9899 1.50796 10.8891 1.6968 10.7069L1.99016 10.4139V18C1.99016 18.5304 2.20113 19.0391 2.57666 19.4142C2.9522 19.7893 3.46153 20 3.99262 20H6.99631C7.26185 20 7.51652 19.8946 7.70429 19.7071C7.89205 19.5196 7.99754 19.2652 7.99754 19V14.9999C7.99754 14.7347 8.10303 14.4804 8.29079 14.2928C8.47856 14.1053 8.73323 13.9999 8.99877 13.9999H11.0012C11.2668 13.9999 11.5214 14.1053 11.7092 14.2928C11.897 14.4804 12.0025 14.7347 12.0025 14.9999V19C12.0025 19.2652 12.1079 19.5196 12.2957 19.7071C12.4835 19.8946 12.7381 20 13.0037 20H16.0074C16.5385 20 17.0478 19.7893 17.4233 19.4142C17.7989 19.0391 18.0098 18.5304 18.0098 18V10.4139L18.3032 10.7069C18.492 10.8891 18.7449 10.9899 19.0075 10.9876C19.27 10.9853 19.5211 10.8801 19.7067 10.6947C19.8924 10.5093 19.9977 10.2585 20 9.99629C20.0022 9.73409 19.9013 9.48149 19.7189 9.29289Z" fill="#6B7280"/>
</svg>
