<svg width="18" height="18" viewBox="0 0 18 18" fill="none" xmlns="http://www.w3.org/2000/svg">
<path d="M6.143 0H1.857C0.831407 0 0 0.831407 0 1.857V6.143C0 7.16859 0.831407 8 1.857 8H6.143C7.16859 8 8 7.16859 8 6.143V1.857C8 0.831407 7.16859 0 6.143 0Z" fill="#6B7280"/>
<path d="M16.143 0H11.857C10.8314 0 10 0.831407 10 1.857V6.143C10 7.16859 10.8314 8 11.857 8H16.143C17.1686 8 18 7.16859 18 6.143V1.857C18 0.831407 17.1686 0 16.143 0Z" fill="#6B7280"/>
<path d="M6.143 10H1.857C0.831407 10 0 10.8314 0 11.857V16.143C0 17.1686 0.831407 18 1.857 18H6.143C7.16859 18 8 17.1686 8 16.143V11.857C8 10.8314 7.16859 10 6.143 10Z" fill="#6B7280"/>
<path d="M17 13H15V11C15 10.7348 14.8946 10.4804 14.7071 10.2929C14.5196 10.1054 14.2652 10 14 10C13.7348 10 13.4804 10.1054 13.2929 10.2929C13.1054 10.4804 13 10.7348 13 11V13H11C10.7348 13 10.4804 13.1054 10.2929 13.2929C10.1054 13.4804 10 13.7348 10 14C10 14.2652 10.1054 14.5196 10.2929 14.7071C10.4804 14.8946 10.7348 15 11 15H13V17C13 17.2652 13.1054 17.5196 13.2929 17.7071C13.4804 17.8946 13.7348 18 14 18C14.2652 18 14.5196 17.8946 14.7071 17.7071C14.8946 17.5196 15 17.2652 15 17V15H17C17.2652 15 17.5196 14.8946 17.7071 14.7071C17.8946 14.5196 18 14.2652 18 14C18 13.7348 17.8946 13.4804 17.7071 13.2929C17.5196 13.1054 17.2652 13 17 13Z" fill="#6B7280"/>
</svg>
