<svg width="20" height="12" viewBox="0 0 20 12" fill="none" xmlns="http://www.w3.org/2000/svg">
<path d="M1.875 0H0.625C0.279822 0 0 0.268629 0 0.6V1.8C0 2.13137 0.279822 2.4 0.625 2.4H1.875C2.22018 2.4 2.5 2.13137 2.5 1.8V0.6C2.5 0.268629 2.22018 0 1.875 0Z" fill="#6B7280"/>
<path d="M1.875 4.8H0.625C0.279822 4.8 0 5.06863 0 5.4V6.6C0 6.93137 0.279822 7.2 0.625 7.2H1.875C2.22018 7.2 2.5 6.93137 2.5 6.6V5.4C2.5 5.06863 2.22018 4.8 1.875 4.8Z" fill="#6B7280"/>
<path d="M1.875 9.6H0.625C0.279822 9.6 0 9.86863 0 10.2V11.4C0 11.7314 0.279822 12 0.625 12H1.875C2.22018 12 2.5 11.7314 2.5 11.4V10.2C2.5 9.86863 2.22018 9.6 1.875 9.6Z" fill="#6B7280"/>
<path d="M18.75 2.4H6.25C5.91848 2.4 5.60054 2.27357 5.36612 2.04853C5.1317 1.82348 5 1.51826 5 1.2C5 0.88174 5.1317 0.576516 5.36612 0.351472C5.60054 0.126428 5.91848 0 6.25 0H18.75C19.0815 0 19.3995 0.126428 19.6339 0.351472C19.8683 0.576516 20 0.88174 20 1.2C20 1.51826 19.8683 1.82348 19.6339 2.04853C19.3995 2.27357 19.0815 2.4 18.75 2.4Z" fill="#6B7280"/>
<path d="M18.75 7.2H6.25C5.91848 7.2 5.60054 7.07357 5.36612 6.84853C5.1317 6.62348 5 6.31826 5 6C5 5.68174 5.1317 5.37652 5.36612 5.15147C5.60054 4.92643 5.91848 4.8 6.25 4.8H18.75C19.0815 4.8 19.3995 4.92643 19.6339 5.15147C19.8683 5.37652 20 5.68174 20 6C20 6.31826 19.8683 6.62348 19.6339 6.84853C19.3995 7.07357 19.0815 7.2 18.75 7.2Z" fill="#6B7280"/>
<path d="M18.75 12H6.25C5.91848 12 5.60054 11.8736 5.36612 11.6485C5.1317 11.4235 5 11.1183 5 10.8C5 10.4817 5.1317 10.1765 5.36612 9.95147C5.60054 9.72643 5.91848 9.6 6.25 9.6H18.75C19.0815 9.6 19.3995 9.72643 19.6339 9.95147C19.8683 10.1765 20 10.4817 20 10.8C20 11.1183 19.8683 11.4235 19.6339 11.6485C19.3995 11.8736 19.0815 12 18.75 12Z" fill="#6B7280"/>
</svg>
