<svg width="16" height="20" viewBox="0 0 16 20" fill="none" xmlns="http://www.w3.org/2000/svg">
<path d="M13.8663 11.0862V9.19145C13.8671 7.91087 13.3988 6.6675 12.5373 5.66237C11.6758 4.65725 10.4714 3.94915 9.11886 3.65258C9.12916 3.61584 9.13717 3.57859 9.14286 3.541V1.05262C9.14286 0.773445 9.02245 0.505708 8.80812 0.308304C8.59379 0.110901 8.3031 0 8 0C7.6969 0 7.40621 0.110901 7.19188 0.308304C6.97755 0.505708 6.85714 0.773445 6.85714 1.05262V3.541C6.86283 3.57859 6.87084 3.61584 6.88114 3.65258C5.52859 3.94915 4.32418 4.65725 3.46268 5.66237C2.60117 6.6675 2.13295 7.91087 2.13371 9.19145V11.0862C2.13371 13.5977 0 14.2251 0 15.4808C0 16.105 1.36239e-07 16.7366 0.614857 16.7366H15.3851C16 16.7366 16 16.105 16 15.4808C16 14.2251 13.8663 13.5977 13.8663 11.0862Z" fill="#6B7280"/>
<path d="M4.36914 17.7892C4.67232 18.445 5.17816 19.0043 5.82373 19.3973C6.4693 19.7904 7.22611 20 8 20C8.77389 20 9.5307 19.7904 10.1763 19.3973C10.8218 19.0043 11.3277 18.445 11.6309 17.7892H4.36914Z" fill="#6B7280"/>
</svg>
