<svg width="16" height="16" viewBox="0 0 16 16" fill="none" xmlns="http://www.w3.org/2000/svg">
<path d="M14.7498 14.75L10.2498 10.25M11.7498 6.5C11.7498 7.18944 11.614 7.87213 11.3501 8.50909C11.0863 9.14605 10.6996 9.7248 10.2121 10.2123C9.72456 10.6998 9.1458 11.0865 8.50884 11.3504C7.87188 11.6142 7.1892 11.75 6.49976 11.75C5.81032 11.75 5.12763 11.6142 4.49067 11.3504C3.85371 11.0865 3.27495 10.6998 2.78745 10.2123C2.29994 9.7248 1.91323 9.14605 1.64939 8.50909C1.38555 7.87213 1.24976 7.18944 1.24976 6.5C1.24976 5.10761 1.80288 3.77226 2.78745 2.78769C3.77201 1.80312 5.10737 1.25 6.49976 1.25C7.89214 1.25 9.2275 1.80312 10.2121 2.78769C11.1966 3.77226 11.7498 5.10761 11.7498 6.5Z" stroke="#1C64F2" stroke-width="2" stroke-linecap="round" stroke-linejoin="round"/>
</svg>
