<svg width="12" height="13" viewBox="0 0 12 13" fill="none" xmlns="http://www.w3.org/2000/svg">
<path d="M4.80006 10.1C3.8507 10.1 2.92266 9.81848 2.13329 9.29105C1.34392 8.76362 0.728689 8.01396 0.365385 7.13688C0.00207977 6.25979 -0.0929773 5.29467 0.0922339 4.36357C0.277445 3.43246 0.734606 2.57718 1.40591 1.90589C2.07721 1.2346 2.93249 0.777442 3.86361 0.592233C4.79473 0.407024 5.75986 0.50208 6.63696 0.86538C7.51406 1.22868 8.26372 1.84391 8.79116 2.63326C9.3186 3.42262 9.60011 4.35065 9.60011 5.3C9.59869 6.5726 9.09251 7.79267 8.19263 8.69253C7.29276 9.5924 6.07267 10.0986 4.80006 10.1ZM4.80006 1.7C4.08804 1.7 3.39201 1.91114 2.79998 2.30671C2.20796 2.70228 1.74653 3.26453 1.47405 3.92234C1.20157 4.58015 1.13028 5.30399 1.26919 6.00232C1.4081 6.70066 1.75097 7.34211 2.25444 7.84558C2.75792 8.34905 3.39939 8.69192 4.09772 8.83082C4.79606 8.96973 5.51991 8.89844 6.17773 8.62596C6.83556 8.35349 7.39781 7.89207 7.79338 7.30005C8.18896 6.70803 8.4001 6.01201 8.4001 5.3C8.39915 4.34551 8.01955 3.43039 7.34462 2.75547C6.66969 2.08055 5.75456 1.70095 4.80006 1.7Z" fill="white"/>
<path d="M11.4001 12.5C11.241 12.5 11.0884 12.4367 10.9759 12.3242L8.57589 9.9242C8.46659 9.81104 8.40611 9.65948 8.40748 9.50216C8.40885 9.34484 8.47195 9.19436 8.5832 9.08311C8.69444 8.97187 8.84493 8.90876 9.00225 8.9074C9.15957 8.90603 9.31114 8.96651 9.4243 9.0758L11.8243 11.4758C11.9082 11.5597 11.9653 11.6666 11.9885 11.783C12.0116 11.8994 11.9997 12.02 11.9543 12.1296C11.9089 12.2392 11.832 12.3329 11.7334 12.3988C11.6348 12.4648 11.5188 12.5 11.4001 12.5Z" fill="white"/>
</svg>
