<svg width="18" height="18" viewBox="0 0 18 18" fill="none" xmlns="http://www.w3.org/2000/svg">
<path d="M15.9089 7.5L15.7811 7.19133L15.0741 5.48433L14.9463 5.17599L15.1821 4.93978L15.7171 4.40378L15.7174 4.4035C15.8111 4.30974 15.8638 4.18258 15.8638 4.05C15.8638 3.91744 15.8111 3.79031 15.7174 3.69655L15.9089 7.5ZM15.9089 7.5H16.243M15.9089 7.5H16.243M3.6965 2.28261L3.69655 2.28255C3.79031 2.18885 3.91744 2.13621 4.05 2.13621C4.18258 2.13621 4.30974 2.18887 4.4035 2.28261L4.40378 2.28288L4.93978 2.81788L5.17599 3.05365L5.48433 2.92595L7.19133 2.21895L7.5 2.0911V1.757V1C7.5 0.867392 7.55268 0.740215 7.64645 0.646446C7.74021 0.552678 7.86739 0.5 8 0.5H10C10.1326 0.5 10.2598 0.552678 10.3536 0.646446C10.4473 0.740215 10.5 0.867392 10.5 1V1.757V2.0911L10.8087 2.21895L12.5157 2.92595L12.824 3.05365L13.0602 2.81788L13.5962 2.28288L13.5965 2.28261C13.6903 2.18887 13.8174 2.13621 13.95 2.13621C14.0826 2.13621 14.2097 2.18885 14.3034 2.28255C14.3035 2.28257 14.3035 2.28259 14.3035 2.28261L15.7174 3.6965L3.343 1.929L3.6965 2.28261ZM3.6965 2.28261L2.28261 3.6965M3.6965 2.28261L2.28261 3.6965M2.28261 3.6965C2.28259 3.69652 2.28257 3.69654 2.28255 3.69655M2.28261 3.6965L2.28255 3.69655M16.243 7.5H17C17.1326 7.5 17.2598 7.55268 17.3536 7.64645C17.4473 7.74021 17.5 7.86739 17.5 8V10C17.5 10.1326 17.4473 10.2598 17.3536 10.3536C17.2598 10.4473 17.1326 10.5 17 10.5H16.243H15.9089L15.7811 10.8087L15.0741 12.5157L14.9463 12.824L15.1821 13.0602L15.7171 13.5962L15.7174 13.5965C15.8111 13.6903 15.8638 13.8174 15.8638 13.95C15.8638 14.0826 15.8111 14.2097 15.7174 14.3034C15.7174 14.3035 15.7174 14.3035 15.7174 14.3035L14.3035 15.7174L16.243 7.5ZM3.05491 5.1758L2.92685 5.48456L2.21885 7.19156L2.09092 7.5H1.757H1C0.867392 7.5 0.740215 7.55268 0.646446 7.64645C0.552678 7.74021 0.5 7.86739 0.5 8V10C0.5 10.1326 0.552678 10.2598 0.646446 10.3536C0.740215 10.4473 0.867392 10.5 1 10.5H1.757H2.09105L2.21892 10.8086C2.33458 11.0877 2.41401 11.2793 2.48179 11.4427C2.61369 11.7607 2.70144 11.9722 2.92612 12.5161L3.05342 12.8242L2.81788 13.0602L2.28288 13.5962L2.28261 13.5965C2.18887 13.6903 2.13621 13.8174 2.13621 13.95C2.13621 14.0826 2.18885 14.2097 2.28255 14.3034L2.28261 14.3035M3.05491 5.1758L2.28261 14.3035M3.05491 5.1758L2.81855 4.93945M3.05491 5.1758L2.81855 4.93945M2.28261 14.3035L3.6965 15.7174M2.28261 14.3035L3.6965 15.7174M3.6965 15.7174C3.69652 15.7174 3.69654 15.7174 3.69655 15.7174C3.79031 15.8111 3.91744 15.8638 4.05 15.8638C4.18258 15.8638 4.30974 15.8111 4.4035 15.7174L4.40378 15.7171L4.93978 15.1821L5.17599 14.9463L5.48433 15.0741L7.19133 15.7811L7.5 15.9089V16.243V17C7.5 17.1326 7.55268 17.2598 7.64645 17.3536C7.74021 17.4473 7.86739 17.5 8 17.5H10C10.1326 17.5 10.2598 17.4473 10.3536 17.3536C10.4473 17.2598 10.5 17.1326 10.5 17V16.243V15.9091L10.8084 15.7811L12.5154 15.0731L12.8242 14.9451L13.0606 15.1814L13.5965 15.7174C13.5965 15.7174 13.5965 15.7174 13.5966 15.7174C13.6903 15.8111 13.8174 15.8638 13.95 15.8638C14.0826 15.8638 14.2097 15.8111 14.3034 15.7174L3.6965 15.7174ZM2.81855 4.93945L2.28261 4.4035C2.28259 4.40348 2.28257 4.40346 2.28255 4.40345C2.18885 4.30969 2.13621 4.18256 2.13621 4.05C2.13621 3.91744 2.18885 3.79031 2.28255 3.69655M2.81855 4.93945L2.28255 3.69655M6.49993 12.7416C7.23996 13.2361 8.10998 13.5 9 13.5C10.1935 13.5 11.3381 13.0259 12.182 12.182C13.0259 11.3381 13.5 10.1935 13.5 9C13.5 8.10998 13.2361 7.23996 12.7416 6.49993C12.2471 5.75991 11.5443 5.18314 10.7221 4.84254C9.89981 4.50195 8.99501 4.41283 8.12209 4.58647C7.24918 4.7601 6.44736 5.18868 5.81802 5.81802C5.18868 6.44736 4.7601 7.24918 4.58647 8.12209C4.41283 8.99501 4.50195 9.89981 4.84254 10.7221C5.18314 11.5443 5.75991 12.2471 6.49993 12.7416Z" fill="#6B7280" stroke="#6B7280"/>
</svg>
